<svg width="65" height="69" viewBox="0 0 65 69" fill="none" xmlns="http://www.w3.org/2000/svg">
<path d="M50.8361 35.6701C59.8042 35.6284 65.1549 39.8487 64.9967 46.7794C64.9206 50.1187 64.0452 53.3668 60.4329 54.8981C56.9859 56.3594 54.796 54.0648 52.3207 51.3587C49.1652 59.4114 43.513 62.7195 34.3752 59.7298C34.4336 60.9417 34.4372 61.7892 34.5213 62.6296C34.978 67.1978 32.0185 69.7079 27.1963 68.8251C20.2201 67.5479 16.0955 61.1724 18.1732 54.844C18.4569 53.98 18.6781 53.0145 19.2497 52.3304C22.7715 48.1159 24.6151 43.3136 26.101 38.1698C27.6978 32.6425 33.2196 30.7699 39.468 32.6789C43.1169 33.7937 46.8441 34.6845 50.8361 35.6701Z" fill="black"/>
<path d="M7.74428 28.4458C7.50551 25.1332 6.86452 21.9911 7.29071 18.9809C7.95202 14.31 12.3295 12.5208 15.9776 15.6404C19.5537 18.6984 22.6739 22.452 25.1027 26.3812C27.2424 29.8426 25.9397 33.4148 23.1507 35.3575C20.1998 37.4129 15.6589 37.506 12.6405 34.9461C10.6462 33.2547 9.40095 30.7925 7.74428 28.4458Z" fill="black"/>
<path d="M43.4893 18.4446C43.1239 20.8498 43.2023 23.2308 42.2033 25.1126C39.5821 30.0505 32.6672 30.1395 29.1703 25.3337C26.1097 21.1274 24.9003 16.2649 24.9497 11.2501C24.9914 7.018 28.3051 5.0669 32.5197 6.60558C38.2466 8.6964 41.8316 12.6602 43.4893 18.4446Z" fill="black"/>
<path d="M7.00176 51.7919C2.65044 49.0498 0.719016 45.222 0.237479 40.7297C-0.254531 36.1406 3.30647 33.5778 7.52682 35.8416C10.6883 37.5374 13.5997 39.9946 15.8879 42.6627C18.4728 45.6765 18.172 49.2075 16.1457 51.3046C14.2058 53.3122 11.166 53.5213 7.00176 51.7919Z" fill="black"/>
<path d="M57.7954 16.4238C60.3607 19.7298 61.8497 23.1441 61.1634 27.0746C60.6847 29.8162 59.3909 32.1397 56.1202 32.6765C52.8432 33.2143 49.929 32.0061 49.0127 29.1651C47.8597 25.5906 47.3053 21.7344 47.3086 18.0003C47.31 16.3801 49.0561 13.7845 50.537 13.3989C52.2391 12.9557 54.5417 14.4297 56.5446 15.1632C56.997 15.3288 57.2894 15.8756 57.7954 16.4238Z" fill="black"/>
<path d="M27.1704 3.03471C26.0555 4.12952 24.8162 5.04421 23.545 5.98252C21.9991 4.0946 20.497 2.26019 18.6499 0.00441974C22.0437 -0.0596817 24.8225 0.555446 27.1704 3.03471Z" fill="black"/>
<path d="M9.66674 11.8898C8.84932 12.1785 8.27407 12.3873 7.49378 12.6706C6.75055 9.25525 7.63923 6.56802 10.1462 4.33398C10.7701 6.66359 11.3524 8.83793 11.9854 11.2015C11.4539 11.3573 10.6814 11.5836 9.66674 11.8898Z" fill="black"/>
<path d="M0.332655 33.2373C-0.47751 30.7216 0.217597 28.6955 2.14045 26.8047C2.75521 28.6496 3.27603 30.2125 3.88782 32.0485C2.87726 32.4371 1.71609 32.8836 0.332655 33.2373Z" fill="black"/>
<path d="M47.1363 11.9546C45.6085 10.8369 44.2789 9.57967 42.9492 8.32251C43.1013 8.03597 43.2533 7.74943 43.4053 7.46289C45.4269 8.10813 47.4485 8.75337 49.9897 9.56444C48.717 10.6433 48.0257 11.2292 47.1363 11.9546Z" fill="black"/>
</svg>
