<svg width="65" height="68" viewBox="0 0 65 68" fill="none" xmlns="http://www.w3.org/2000/svg">
<path d="M50.8361 34.7644C59.8042 34.7237 65.1549 38.8371 64.9967 45.5921C64.9206 48.8467 64.0452 52.0125 60.4329 53.505C56.9859 54.9292 54.796 52.6928 52.3207 50.0552C49.1652 57.9038 43.513 61.1281 34.3752 58.2142C34.4336 59.3954 34.4372 60.2213 34.5213 61.0404C34.978 65.4928 32.0185 67.9394 27.1963 67.0789C20.2201 65.8341 16.0955 59.6202 18.1732 53.4522C18.4569 52.6102 18.6781 51.6691 19.2497 51.0023C22.7715 46.8947 24.6151 42.2142 26.101 37.2008C27.6978 31.8135 33.2196 29.9884 39.468 31.849C43.1169 32.9356 46.8441 33.8037 50.8361 34.7644Z" fill="#FF0000"/>
<path d="M7.74428 27.7272C7.50551 24.4985 6.86452 21.4361 7.29071 18.5022C7.95202 13.9497 12.3295 12.2058 15.9776 15.2464C19.5537 18.2269 22.6739 21.8853 25.1027 25.7149C27.2424 29.0886 25.9397 32.5702 23.1507 34.4636C20.1998 36.467 15.6589 36.5577 12.6405 34.0627C10.6462 32.4141 9.40095 30.0144 7.74428 27.7272Z" fill="#FF0000"/>
<path d="M43.4893 17.976C43.1239 20.3202 43.2023 22.6408 42.2033 24.475C39.5821 29.2877 32.6672 29.3743 29.1703 24.6904C26.1097 20.5908 24.9003 15.8515 24.9497 10.9639C24.9914 6.83903 28.3051 4.93738 32.5197 6.43706C38.2466 8.47487 41.8316 12.3382 43.4893 17.976Z" fill="#FF0000"/>
<path d="M7.00176 50.4806C2.65044 47.8081 0.719016 44.0772 0.237479 39.6988C-0.254531 35.226 3.30647 32.7283 7.52682 34.9347C10.6883 36.5875 13.5997 38.9824 15.8879 41.5828C18.4728 44.5203 18.172 47.9617 16.1457 50.0056C14.2058 51.9624 11.166 52.1662 7.00176 50.4806Z" fill="#FF0000"/>
<path d="M57.7954 16.0081C60.3607 19.2303 61.8497 22.558 61.1634 26.389C60.6847 29.061 59.3909 31.3256 56.1202 31.8488C52.8432 32.373 49.929 31.1954 49.0127 28.4265C47.8597 24.9425 47.3053 21.1841 47.3086 17.5447C47.31 15.9655 49.0561 13.4357 50.537 13.0599C52.2391 12.628 54.5417 14.0646 56.5446 14.7795C56.997 14.9409 57.2894 15.4739 57.7954 16.0081Z" fill="#FF0000"/>
<path d="M27.1704 2.95778C26.0555 4.02483 24.8162 4.91634 23.545 5.83086C21.9991 3.9908 20.497 2.2029 18.6499 0.0043077C22.0437 -0.0581688 24.8225 0.541366 27.1704 2.95778Z" fill="#FF0000"/>
<path d="M9.66674 11.5909C8.84932 11.8722 8.27407 12.0757 7.49378 12.3518C6.75055 9.02307 7.63923 6.40396 10.1462 4.22656C10.7701 6.49711 11.3524 8.61633 11.9854 10.92C11.4539 11.0718 10.6814 11.2924 9.66674 11.5909Z" fill="#FF0000"/>
<path d="M0.332655 32.3984C-0.47751 29.9465 0.217597 27.9718 2.14045 26.1289C2.75521 27.927 3.27603 29.4503 3.88782 31.2398C2.87726 31.6185 1.71609 32.0537 0.332655 32.3984Z" fill="#FF0000"/>
<path d="M47.1363 11.6513C45.6085 10.5619 44.2789 9.33656 42.9492 8.11126C43.1013 7.83199 43.2533 7.55271 43.4053 7.27344C45.4269 7.90232 47.4485 8.53121 49.9897 9.32171C48.717 10.3732 48.0257 10.9443 47.1363 11.6513Z" fill="#FF0000"/>
</svg>
